/* XPM */
static const char * frombc2ac_xpm[] = {
"24 24 12 1",
" 	c None",
".	c #00E500",
"+	c #00E600",
"@	c #00E400",
"#	c #00A84C",
"$	c #002AEA",
"%	c #0018FF",
"&	c #0017FF",
"*	c #FF1800",
"=	c #0019FF",
"-	c #FF1900",
";	c #FF1700",
"       ......+          ",
"    ............        ",
"   .....    .@...       ",
"  ..+        @...       ",
" ...       ....+        ",
" .+      .....          ",
"+.+    ....+            ",
"..    +..#$             ",
"+.   +.. %%             ",
"..   ..  %%%            ",
"... ..+   %%% &%        ",
" .....     %%&%%   ***  ",
"  +..      &%%%&  ***** ",
"         &%%%%%= *** **-",
"         %%%%%%  **   **",
"             &= ***   **",
"              ****    **",
"            ;****    ;*-",
"          *****      ** ",
"        *****       *** ",
"       ****        ***  ",
"       *****    ;****   ",
"        ;**********-    ",
"          *--****       "};
