/* XPM */
static const char * Pick_xpm[] = {
"24 24 52 1",
" 	c None",
".	c #F0A0A0",
"+	c #F09F9F",
"@	c #EFA0A0",
"#	c #F4A2A2",
"$	c #FBA5A4",
"%	c #F8A4A3",
"&	c #3A6783",
"*	c #0D73A0",
"=	c #B98285",
"-	c #FEA6A5",
";	c #12729D",
">	c #35C6FF",
",	c #7D6268",
"'	c #F0A1A1",
")	c #FEA7A6",
"!	c #EDA0A1",
"~	c #19749E",
"{	c #80646A",
"]	c #EDA1A1",
"^	c #1F759E",
"/	c #0C2D3C",
"(	c #092430",
"_	c #154E68",
":	c #2077A0",
"<	c #2079A3",
"[	c #37CBFF",
"}	c #175673",
"|	c #2077A1",
"1	c #1D6C91",
"2	c #1F759D",
"3	c #38CFFF",
"4	c #144C67",
"5	c #175775",
"6	c #15506C",
"7	c #34C1FF",
"8	c #37CAFF",
"9	c #1E7097",
"0	c #33BCFE",
"a	c #34C2FF",
"b	c #1E7098",
"c	c #0D2D3C",
"d	c #2CA4DE",
"e	c #2997CB",
"f	c #33BDFF",
"g	c #09232F",
"h	c #35C5FF",
"i	c #0A242F",
"j	c #36CAFF",
"k	c #0F3649",
"l	c #2078A2",
"m	c #2BA0D7",
"               ..       ",
"    ...+      .....     ",
"   .....@    .......    ",
"   ......    ........   ",
" .........    .......   ",
"...........    .......  ",
"@...#$......    ......  ",
"...%&*=.....     ...... ",
"...-;>,.''..      ..... ",
" .+);>,''''.      ......",
"  .);>,.''!        .....",
"    ~>{..]          ....",
"    ^>              ....",
" /( ^>_: (           ...",
" <[}|>1>2345         ...",
" 67890a>b>b[(         ..",
" cd7eff7e>1>(           ",
"  ghfffff0a>(           ",
"  ijfffffffh            ",
"  klfffffffh            ",
"   67ffffff>(           ",
"    >ffffffm/           ",
"   /mfffff76            ",
"    2fffff>             "};
